<svg id="Capa_1" enable-background="new 0 0 526.768 526.768" height="512" viewBox="0 0 526.768 526.768" width="512" xmlns="http://www.w3.org/2000/svg"><g><g id="图层_x0020_1_41_"><g id="_152772072" clip-rule="evenodd" fill-rule="evenodd"><path id="_152768448" d="m383.15 24.362c32.484-32.485 85.633-32.478 118.105 0 32.484 32.478 32.484 85.62 0 118.099-119.594 119.6-239.2 239.206-358.794 358.8-32.478 32.478-85.62 32.478-118.099-.006-32.478-32.472-32.485-85.62-.006-118.099 119.593-119.595 239.199-239.201 358.794-358.794z"/><path id="_152764656_1_" d="m25.512 143.618c-32.485-32.485-32.478-85.633 0-118.105 32.478-32.485 85.62-32.485 118.105 0l358.794 358.794c32.478 32.478 32.478 85.62-.006 118.099-32.472 32.478-85.62 32.485-118.099.006-119.594-119.593-239.2-239.2-358.794-358.794z"/></g></g></g></svg>